<?xml version="1.0" encoding="UTF-8"?><svg id="b" xmlns="http://www.w3.org/2000/svg" viewBox="0 0 365.26 415.8"><defs><style>.d{fill:#fff;}</style></defs><g id="c"><circle class="d" cx="177.04" cy="370.51" r="11.88"/><path class="d" d="m294.17,146.24v-37.92c0-27.18-22.03-49.18-49.2-49.19H109.1c-27.17,0-49.19,22.01-49.2,49.19v258.28c0,27.18,22.03,49.19,49.2,49.2h135.88c27.17,0,49.19-22.02,49.2-49.2v-104.6h71.08v-115.76h-71.08Zm41.37,13.9l-55.18,36.57-55.17-36.57h110.34Zm-255.64-51.82c.03-16.11,13.09-29.16,29.2-29.19h135.88c16.11.03,29.17,13.08,29.2,29.19v.31H79.9v-.31Zm194.28,258.28c-.03,16.13-13.09,29.17-29.2,29.2H109.1c-16.11-.03-29.17-13.07-29.2-29.2v-17.97h194.28v17.97Zm0-27.97H79.9V118.63h194.28v27.61h-78.69v115.76h78.69v76.63Zm77.56-90.53h-142.74v-82.15l71.38,47.31,71.37-47.31v82.15Z"/><rect class="d" x="29.25" y="12.64" width="17" height="50.22" rx="8.5" ry="8.5" transform="translate(-15.64 37.75) rotate(-45)"/><rect class="d" x="16.05" y="48.46" width="17" height="50.22" rx="8.5" ry="8.5" transform="translate(-52.87 78.24) rotate(-75)"/><rect class="d" x="65.07" y="-.56" width="17" height="50.22" rx="8.5" ry="8.5" transform="translate(-3.85 19.88) rotate(-15)"/></g></svg>