<?xml version="1.0" encoding="utf-8"?>
<!-- Generator: Adobe Illustrator 21.1.0, SVG Export Plug-In . SVG Version: 6.00 Build 0)  -->
<svg version="1.1" id="_x32_" xmlns="http://www.w3.org/2000/svg" xmlns:xlink="http://www.w3.org/1999/xlink" x="0px" y="0px"
	 viewBox="0 0 512 512" style="enable-background:new 0 0 512 512;" xml:space="preserve">
<style type="text/css">
	.st0{fill:#FFFFFF;}
</style>
<g>
	<path class="st0" d="M138.8,179.2c9.2-8.4,7.8-26.7-2.1-37.9c-9.9-11.2-4.4-16.6-4.4-16.6l117.8-23.5l117.8-23.5
		c0,0,7.1,2.9,2.3,17c-4.9,14.1,0.8,31.6,12.6,35.8c11.8,4.2,66.9,10.7,87.3,8.9c20.4-1.9,27.6-26.3,27.4-32.8
		c-0.2-6.5,1.9-72.6-63.7-94.5c-65.6-21.9-144.3-9.5-201.1,1.8c-56.8,11.3-134.2,30-186.4,75.4C-5.9,134.7,21.4,194.9,23.7,201
		c2.3,6.1,18.3,25.9,37.9,19.8C81.1,214.7,129.5,187.6,138.8,179.2z"/>
	<path class="st0" d="M279.1,407.5c18.6,0,35.2-7.5,47.4-19.6c12.2-12.2,19.6-28.8,19.6-47.4c0-18.6-7.5-35.2-19.6-47.4
		c-12.2-12.2-28.8-19.6-47.4-19.6c-18.6,0-35.2,7.5-47.4,19.6c-12.2,12.2-19.6,28.8-19.6,47.4c0,18.6,7.5,35.2,19.6,47.4
		C243.9,400.1,260.6,407.5,279.1,407.5z"/>
	<path class="st0" d="M391.5,165.6c-2-3.8-5.8-6.1-10.1-6.1h-33.8c-4.2,0-7.6,3.4-7.6,7.6v23.1c0,4.2-3.4,7.6-7.7,7.6H226
		c-4.2,0-7.6-3.4-7.6-7.6v-23.1c0-4.2-3.4-7.6-7.6-7.6h-33.8c-4.3,0-8.2,2.4-10.1,6.1L83.5,324.9c-14.5,27.8-22.1,58.7-22.1,90.1
		v37.2c0,21.1,17.1,38.1,38.1,38.1h9.5V512h38.8v-21.7h262.4V512h38.8v-21.7h9.5c21.1,0,38.1-17.1,38.1-38.1v-37.2
		c0-31.4-7.6-62.3-22.1-90.1L391.5,165.6z M174.5,340.5c0-57.8,46.9-104.7,104.7-104.7c57.8,0,104.7,46.9,104.7,104.7
		c0,57.8-46.9,104.7-104.7,104.7C221.3,445.2,174.5,398.3,174.5,340.5z"/>
</g>
</svg>
